<?xml version="1.0" encoding="UTF-8"?>
<svg xmlns="http://www.w3.org/2000/svg" version="1.1" viewBox="0 0 32 32">
  <defs>
    <style>
      .cls-1 {
        stroke-miterlimit: 10;
        stroke-width: 1.7px;
      }

      .cls-1, .cls-2 {
        fill: none;
        stroke: #1a1a1a;
        stroke-linecap: round;
      }

      .cls-3 {
        fill: #fff;
      }

      .cls-2 {
        stroke-linejoin: round;
        stroke-width: 1.4px;
      }
    </style>
  </defs>
  <!-- Generator: Adobe Illustrator 28.7.10, SVG Export Plug-In . SVG Version: 1.2.0 Build 236)  -->
  <g>
    <g id="_レイヤー_1" data-name="レイヤー_1">
      <g>
        <path class="cls-3" d="M25.5,5.5H6.8c-2.2,0-3.9,1.7-3.9,3.9v12.3c0,2.2,1.7,3.9,3.9,3.9h1.9l1.8,2.3c.1.2.4.2.5,0l1.8-2.3h12.7c2.2,0,3.9-1.7,3.9-3.9v-12.3c0-2.2-1.7-3.9-3.9-3.9Z"/>
        <path class="cls-2" d="M25.5,5.5H6.8c-2.2,0-3.9,1.7-3.9,3.9v12.3c0,2.2,1.7,3.9,3.9,3.9h1.9l1.8,2.3c.1.2.4.2.5,0l1.8-2.3h12.7c2.2,0,3.9-1.7,3.9-3.9v-12.3c0-2.2-1.7-3.9-3.9-3.9Z"/>
      </g>
      <g id="_レイヤー_1-2" data-name="_レイヤー_1">
        <line class="cls-1" x1="7.7" y1="10.7" x2="23.4" y2="10.7"/>
        <line class="cls-1" x1="7.5" y1="15.6" x2="18.3" y2="15.6"/>
        <line class="cls-1" x1="7.5" y1="20.5" x2="15.5" y2="20.5"/>
      </g>
    </g>
  </g>
</svg>